<svg xmlns="http://www.w3.org/2000/svg" width="660" height="140" viewBox="0 0 660 140"><title>旋风流体 Tornado Fluid Technologies</title><g transform="translate(14 25)"><path d="M63 13C43-1 13 12 12 37c-1 18 12 31 29 31-15-7-22-19-17-32 5-12 18-15 29-9z" fill="#087c79"/><path d="M17 67c20 14 50 1 51-24 1-18-12-31-29-31 15 7 22 19 17 32-5 12-18 15-29 9z" fill="#172f35"/></g><text x="118" y="70" font-family="Microsoft YaHei,PingFang SC,sans-serif" font-size="40" font-weight="700" fill="#172f35">旋风流体</text><text x="119" y="102" font-family="Arial,sans-serif" font-size="22" fill="#087c79">Tornado Fluid Technologies</text></svg>
